<svg xmlns="http://www.w3.org/2000/svg" width="554" height="143" fill="none" viewBox="0 0 554 143">
  <g clip-path="url(#a)">
    <g filter="url(#b)">
      <rect width="167.883" height="142" fill="#91C6FF" rx="25" transform="matrix(1 0 -.12187 .99255 24.658 1)"/>
    </g>
    <g filter="url(#c)">
      <rect width="172.247" height="142" fill="#678BFF" rx="25" transform="matrix(1 0 -.12187 .99255 126.316 1)"/>
    </g>
    <g filter="url(#d)">
      <rect width="174.477" height="142" fill="#FF38CA" rx="25" transform="matrix(1 0 -.12187 .99255 227.974 1)"/>
    </g>
    <g filter="url(#e)">
      <rect width="177.317" height="142" fill="#FF4141" rx="25" transform="matrix(1 0 -.12187 .99255 329.632 1)"/>
    </g>
    <g filter="url(#f)">
      <rect width="122" height="142" fill="#FFE941" rx="25" transform="matrix(1 0 -.12187 .99255 431.29 1)"/>
    </g>
    <g filter="url(#g)">
      <path fill="#fff" d="M481.878 100.672c-3.84 0-6.976-.48-9.408-1.44-2.432-.96-4.096-2.656-4.992-5.088-.896-2.432-1.056-5.856-.48-10.272l.48-3.36h11.616l-.576 4.32c-.32 2.368-.384 4.192-.192 5.472.192 1.216.608 2.08 1.248 2.592.704.448 1.536.672 2.496.672 1.408 0 2.592-.512 3.552-1.536 1.024-1.088 1.76-3.168 2.208-6.24.384-2.368.256-4.128-.384-5.28-.576-1.216-1.6-2.176-3.072-2.88-1.472-.768-3.424-1.696-5.856-2.784-2.112-.96-3.808-2.112-5.088-3.456-1.216-1.344-2.048-3.04-2.496-5.088-.384-2.048-.384-4.544 0-7.488.512-3.712 1.44-6.72 2.784-9.024 1.344-2.304 3.232-3.968 5.664-4.992 2.496-1.088 5.728-1.632 9.696-1.632 5.184 0 8.96 1.12 11.328 3.36 2.432 2.176 3.328 5.472 2.688 9.888l-.96 6.816h-11.136l.576-3.456c.384-2.88.32-4.896-.192-6.048-.512-1.152-1.632-1.728-3.36-1.728s-3.008.512-3.84 1.536c-.768 1.024-1.344 2.688-1.728 4.992-.256 1.92-.096 3.456.48 4.608.576 1.152 1.44 2.08 2.592 2.784 1.216.64 2.72 1.312 4.512 2.016 2.688 1.088 4.832 2.208 6.432 3.36 1.664 1.088 2.752 2.624 3.264 4.608.576 1.92.608 4.704.096 8.352-.576 4.096-1.728 7.36-3.456 9.792-1.728 2.368-3.84 4.064-6.336 5.088-2.496 1.024-5.216 1.536-8.16 1.536ZM364.328 100l8.064-56.736h20.16c3.776 0 6.496.864 8.16 2.592 1.728 1.664 2.368 4 1.92 7.008l-1.344 9.792c-.32 2.56-.992 4.96-2.016 7.2-.96 2.176-2.368 3.936-4.224 5.28-1.856 1.344-4.32 2.016-7.392 2.016h-8.448L375.944 100h-11.616Zm15.744-28.992h4.32c1.536 0 2.784-.736 3.744-2.208 1.024-1.472 1.76-3.904 2.208-7.296l.48-3.84c.448-3.008.448-5.152 0-6.432-.448-1.28-1.28-1.92-2.496-1.92h-5.184l-3.072 21.696ZM265.094 100l8.064-56.736h26.112l-1.152 7.872h-14.496l-2.112 15.168h12.288l-1.248 8.736h-12.288l-2.4 17.28h14.496l-1.152 7.68h-26.112Zm-103 0 8.064-56.736h26.112l-1.152 7.872h-14.496l-2.112 15.168h12.288l-1.248 8.736h-12.288l-2.4 17.28h14.496l-1.152 7.68h-26.112Zm-83.146 0-6.72-29.472 14.593-27.264h11.904L83.173 70.528 91.043 100H78.948Zm-22.463 0 8.064-56.736h11.135L67.621 100H56.485Z"/>
    </g>
  </g>
  <defs>
    <filter id="b" width="183.47" height="144.942" x="6.212" y="1" color-interpolation-filters="sRGB" filterUnits="userSpaceOnUse">
      <feFlood flood-opacity="0" result="BackgroundImageFix"/>
      <feBlend in="SourceGraphic" in2="BackgroundImageFix" result="shape"/>
      <feColorMatrix in="SourceAlpha" result="hardAlpha" values="0 0 0 0 0 0 0 0 0 0 0 0 0 0 0 0 0 0 127 0"/>
      <feMorphology in="SourceAlpha" radius="5" result="effect1_innerShadow_1_56"/>
      <feOffset dx="-4" dy="4"/>
      <feGaussianBlur stdDeviation="6"/>
      <feComposite in2="hardAlpha" k2="-1" k3="1" operator="arithmetic"/>
      <feColorMatrix values="0 0 0 0 0.405843 0 0 0 0 0.54448 0 0 0 0 1 0 0 0 1 0"/>
      <feBlend in2="shape" result="effect1_innerShadow_1_56"/>
    </filter>
    <filter id="c" width="187.835" height="144.942" x="107.87" y="1" color-interpolation-filters="sRGB" filterUnits="userSpaceOnUse">
      <feFlood flood-opacity="0" result="BackgroundImageFix"/>
      <feBlend in="SourceGraphic" in2="BackgroundImageFix" result="shape"/>
      <feColorMatrix in="SourceAlpha" result="hardAlpha" values="0 0 0 0 0 0 0 0 0 0 0 0 0 0 0 0 0 0 127 0"/>
      <feMorphology in="SourceAlpha" radius="1" result="effect1_innerShadow_1_56"/>
      <feOffset dx="-4" dy="4"/>
      <feGaussianBlur stdDeviation="6"/>
      <feComposite in2="hardAlpha" k2="-1" k3="1" operator="arithmetic"/>
      <feColorMatrix values="0 0 0 0 1 0 0 0 0 0.219824 0 0 0 0 0.791953 0 0 0 1 0"/>
      <feBlend in2="shape" result="effect1_innerShadow_1_56"/>
    </filter>
    <filter id="d" width="190.064" height="144.942" x="209.528" y="1" color-interpolation-filters="sRGB" filterUnits="userSpaceOnUse">
      <feFlood flood-opacity="0" result="BackgroundImageFix"/>
      <feBlend in="SourceGraphic" in2="BackgroundImageFix" result="shape"/>
      <feColorMatrix in="SourceAlpha" result="hardAlpha" values="0 0 0 0 0 0 0 0 0 0 0 0 0 0 0 0 0 0 127 0"/>
      <feMorphology in="SourceAlpha" radius="5" result="effect1_innerShadow_1_56"/>
      <feOffset dx="-4" dy="4"/>
      <feGaussianBlur stdDeviation="6"/>
      <feComposite in2="hardAlpha" k2="-1" k3="1" operator="arithmetic"/>
      <feColorMatrix values="0 0 0 0 1 0 0 0 0 0.254622 0 0 0 0 0.254622 0 0 0 1 0"/>
      <feBlend in2="shape" result="effect1_innerShadow_1_56"/>
    </filter>
    <filter id="e" width="192.904" height="144.942" x="311.186" y="1" color-interpolation-filters="sRGB" filterUnits="userSpaceOnUse">
      <feFlood flood-opacity="0" result="BackgroundImageFix"/>
      <feBlend in="SourceGraphic" in2="BackgroundImageFix" result="shape"/>
      <feColorMatrix in="SourceAlpha" result="hardAlpha" values="0 0 0 0 0 0 0 0 0 0 0 0 0 0 0 0 0 0 127 0"/>
      <feMorphology in="SourceAlpha" radius="5" result="effect1_innerShadow_1_56"/>
      <feOffset dx="-4" dy="4"/>
      <feGaussianBlur stdDeviation="6"/>
      <feComposite in2="hardAlpha" k2="-1" k3="1" operator="arithmetic"/>
      <feColorMatrix values="0 0 0 0 1 0 0 0 0 0.913039 0 0 0 0 0.254622 0 0 0 1 0"/>
      <feBlend in2="shape" result="effect1_innerShadow_1_56"/>
    </filter>
    <filter id="f" width="137.587" height="144.942" x="412.844" y="1" color-interpolation-filters="sRGB" filterUnits="userSpaceOnUse">
      <feFlood flood-opacity="0" result="BackgroundImageFix"/>
      <feBlend in="SourceGraphic" in2="BackgroundImageFix" result="shape"/>
      <feColorMatrix in="SourceAlpha" result="hardAlpha" values="0 0 0 0 0 0 0 0 0 0 0 0 0 0 0 0 0 0 127 0"/>
      <feMorphology in="SourceAlpha" radius="5" result="effect1_innerShadow_1_56"/>
      <feOffset dx="-4" dy="4"/>
      <feGaussianBlur stdDeviation="6"/>
      <feComposite in2="hardAlpha" k2="-1" k3="1" operator="arithmetic"/>
      <feColorMatrix values="0 0 0 0 0.906139 0 0 0 0 1 0 0 0 0 0.566797 0 0 0 1 0"/>
      <feBlend in2="shape" result="effect1_innerShadow_1_56"/>
    </filter>
    <filter id="g" width="487.569" height="97.504" x="40.484" y="27.168" color-interpolation-filters="sRGB" filterUnits="userSpaceOnUse">
      <feFlood flood-opacity="0" result="BackgroundImageFix"/>
      <feColorMatrix in="SourceAlpha" result="hardAlpha" values="0 0 0 0 0 0 0 0 0 0 0 0 0 0 0 0 0 0 127 0"/>
      <feOffset dx="4" dy="4"/>
      <feGaussianBlur stdDeviation="10"/>
      <feComposite in2="hardAlpha" operator="out"/>
      <feColorMatrix values="0 0 0 0 1 0 0 0 0 1 0 0 0 0 1 0 0 0 0.25 0"/>
      <feBlend in2="BackgroundImageFix" result="effect1_dropShadow_1_56"/>
      <feBlend in="SourceGraphic" in2="effect1_dropShadow_1_56" result="shape"/>
    </filter>
    <clipPath id="a">
      <path fill="#fff" d="M0 0h554v143H0z"/>
    </clipPath>
  </defs>
</svg>
